<mxfile host="app.diagrams.net" agent="Mozilla/5.0 (Windows NT 10.0; Win64; x64) AppleWebKit/537.36 (KHTML, like Gecko) Chrome/131.0.0.0 Safari/537.36" version="26.0.5">
  <diagram name="Page-1" id="TR5sEHsPR-A56FJRqs4F">
    <mxGraphModel dx="1434" dy="738" grid="1" gridSize="10" guides="1" tooltips="1" connect="1" arrows="1" fold="1" page="1" pageScale="1" pageWidth="850" pageHeight="1100" math="0" shadow="0">
      <root>
        <mxCell id="0" />
        <mxCell id="1" parent="0" />
        <mxCell id="nJXbT9FgGnLmUq8w1Ts0-1" value="" style="shape=actor;whiteSpace=wrap;html=1;" vertex="1" parent="1">
          <mxGeometry x="40" y="60" width="40" height="60" as="geometry" />
        </mxCell>
        <mxCell id="nJXbT9FgGnLmUq8w1Ts0-2" value="LLM" style="rounded=1;whiteSpace=wrap;html=1;" vertex="1" parent="1">
          <mxGeometry x="210" y="50" width="80" height="80" as="geometry" />
        </mxCell>
        <mxCell id="nJXbT9FgGnLmUq8w1Ts0-3" value="" style="endArrow=classic;html=1;rounded=0;" edge="1" parent="1" source="nJXbT9FgGnLmUq8w1Ts0-1" target="nJXbT9FgGnLmUq8w1Ts0-2">
          <mxGeometry width="50" height="50" relative="1" as="geometry">
            <mxPoint x="445" y="70" as="sourcePoint" />
            <mxPoint x="375" y="80" as="targetPoint" />
          </mxGeometry>
        </mxCell>
        <mxCell id="nJXbT9FgGnLmUq8w1Ts0-5" value="prompt" style="text;html=1;align=center;verticalAlign=middle;whiteSpace=wrap;rounded=0;" vertex="1" parent="1">
          <mxGeometry x="70" y="60" width="150" height="30" as="geometry" />
        </mxCell>
      </root>
    </mxGraphModel>
  </diagram>
</mxfile>
